<?xml version="1.0" encoding="utf-8"?>
<!DOCTYPE svg PUBLIC "-//W3C//DTD SVG 1.1//EN" "http://www.w3.org/Graphics/SVG/1.1/DTD/svg11.dtd">
<svg version="1.1" xmlns="http://www.w3.org/2000/svg" xmlns:xlink="http://www.w3.org/1999/xlink" x="0px" y="0px"
	 width="300px" height="300px" viewBox="0 0 300 300" enable-background="new 0 0 300 300" xml:space="preserve">

<g>
	<polygon style="fill:rgb(220, 78, 154)" points="0,0 0,100 100,0" />
	<polygon style="fill:rgb(223, 0, 121)" points="100,0 0,100 100,100" />
	<polygon style="fill:rgb(194, 2, 112)" points="100,0 200,0 100,100" />
	<polygon style="fill:rgb(155, 14, 131)" points="200,0 100,100 200,100" />
	<polygon style="fill:rgb(88, 29, 124)" points="200,0 200,100 300,100" />
	<polygon style="fill:rgb(193, 222, 0)" points="0,100 100,100 0,200" />
	<polygon style="fill:rgb(118, 191, 0)" points="100,100 0,200 100,200" />
	<polygon style="fill:rgb(88, 29, 124)" points="166,100 200,100 200,133" />
	<polygon style="fill:rgb(0, 114, 192)" points="200,166 166,200 200,200" />
	<polygon style="fill:rgb(44, 30, 122)" points="200,100 300,100 200,200" />
	<polygon style="fill:rgb(8, 62, 150)" points="300,100 200,200 300,200" />
	<polygon style="fill:rgb(0, 191, 86)" points="0,200 100,200 0,300" />
	<polygon style="fill:rgb(16, 214, 204)" points="100,200 0,300 100,300" />
	<polygon style="fill:rgb(0, 196, 220)" points="100,200 200,200 100,300" />
	<polygon style="fill:rgb(0, 165, 229)" points="200,200 100,300 200,300" />
	<polygon style="fill:rgb(0, 114, 192)" points="200,200 300,200 200,300" />
</g>
</svg>
